<?xml version="1.0" encoding="UTF-8" standalone="no"?>
<!DOCTYPE svg PUBLIC "-//W3C//DTD SVG 1.1//EN"
 "http://www.w3.org/Graphics/SVG/1.1/DTD/svg11.dtd">
<!-- Generated by graphviz version 2.40.1 (20161225.0304)
 -->
<!-- Title: %13 Pages: 1 -->
<svg width="89pt" height="260pt"
 viewBox="0.00 0.00 89.00 260.00" xmlns="http://www.w3.org/2000/svg" xmlns:xlink="http://www.w3.org/1999/xlink">
<g id="page0,1_graph0" class="graph" transform="scale(1 1) rotate(0) translate(4 256)">
<title>%13</title>
<polygon fill="#ffffff" stroke="transparent" points="-4,4 -4,-256 85,-256 85,4 -4,4"/>
<!-- 0 -->
<g id="node1" class="node">
<title>0</title>
<ellipse fill="none" stroke="#000000" cx="54" cy="-234" rx="27" ry="18"/>
<text text-anchor="middle" x="54" y="-230.3" font-family="Times,serif" font-size="14.00" fill="#000000">0</text>
</g>
<!-- 1 -->
<g id="node2" class="node">
<title>1</title>
<ellipse fill="none" stroke="#000000" cx="54" cy="-162" rx="27" ry="18"/>
<text text-anchor="middle" x="54" y="-158.3" font-family="Times,serif" font-size="14.00" fill="#000000">1</text>
</g>
<!-- 0&#45;&gt;1 -->
<g id="edge1" class="edge">
<title>0&#45;&gt;1</title>
<path fill="none" stroke="#000000" d="M54,-215.8314C54,-208.131 54,-198.9743 54,-190.4166"/>
<polygon fill="#000000" stroke="#000000" points="57.5001,-190.4132 54,-180.4133 50.5001,-190.4133 57.5001,-190.4132"/>
</g>
<!-- 2 -->
<g id="node3" class="node">
<title>2</title>
<ellipse fill="none" stroke="#000000" cx="27" cy="-90" rx="27" ry="18"/>
<text text-anchor="middle" x="27" y="-86.3" font-family="Times,serif" font-size="14.00" fill="#000000">2</text>
</g>
<!-- 1&#45;&gt;2 -->
<g id="edge2" class="edge">
<title>1&#45;&gt;2</title>
<path fill="none" stroke="#000000" d="M47.3258,-144.2022C44.2524,-136.0064 40.5384,-126.1024 37.1305,-117.0145"/>
<polygon fill="#000000" stroke="#000000" points="40.3858,-115.7274 33.5974,-107.593 33.8315,-118.1853 40.3858,-115.7274"/>
</g>
<!-- 3 -->
<g id="node4" class="node">
<title>3</title>
<ellipse fill="none" stroke="#000000" cx="54" cy="-18" rx="27" ry="18"/>
<text text-anchor="middle" x="54" y="-14.3" font-family="Times,serif" font-size="14.00" fill="#000000">3</text>
</g>
<!-- 2&#45;&gt;3 -->
<g id="edge3" class="edge">
<title>2&#45;&gt;3</title>
<path fill="none" stroke="#000000" d="M33.6742,-72.2022C36.7476,-64.0064 40.4616,-54.1024 43.8695,-45.0145"/>
<polygon fill="#000000" stroke="#000000" points="47.1685,-46.1853 47.4026,-35.593 40.6142,-43.7274 47.1685,-46.1853"/>
</g>
<!-- 3&#45;&gt;1 -->
<g id="edge4" class="edge">
<title>3&#45;&gt;1</title>
<path fill="none" stroke="#000000" d="M57.7474,-35.9069C59.7466,-46.3759 61.9966,-59.8759 63,-72 64.3197,-87.9455 64.3197,-92.0545 63,-108 62.2945,-116.5247 60.9727,-125.7297 59.5551,-134.083"/>
<polygon fill="#000000" stroke="#000000" points="56.0803,-133.6302 57.7474,-144.0931 62.9689,-134.8742 56.0803,-133.6302"/>
</g>
</g>
</svg>
