<?xml version="1.0" encoding="UTF-8" standalone="no"?>
<!DOCTYPE svg PUBLIC "-//W3C//DTD SVG 1.1//EN"
 "http://www.w3.org/Graphics/SVG/1.1/DTD/svg11.dtd">
<!-- Generated by graphviz version 2.40.1 (20161225.0304)
 -->
<!-- Title: %39 Pages: 1 -->
<svg width="271pt" height="188pt"
 viewBox="0.00 0.00 271.00 188.00" xmlns="http://www.w3.org/2000/svg" xmlns:xlink="http://www.w3.org/1999/xlink">
<g id="page0,1_graph0" class="graph" transform="scale(1 1) rotate(0) translate(4 184)">
<title>%39</title>
<polygon fill="#ffffff" stroke="transparent" points="-4,4 -4,-184 267,-184 267,4 -4,4"/>
<!-- 0 -->
<g id="node1" class="node">
<title>0</title>
<ellipse fill="none" stroke="#000000" cx="137" cy="-162" rx="27" ry="18"/>
<text text-anchor="middle" x="137" y="-158.3" font-family="Times,serif" font-size="14.00" fill="#000000">0</text>
</g>
<!-- 1 -->
<g id="node2" class="node">
<title>1</title>
<ellipse fill="none" stroke="#000000" cx="27" cy="-90" rx="27" ry="18"/>
<text text-anchor="middle" x="27" y="-86.3" font-family="Times,serif" font-size="14.00" fill="#000000">1</text>
</g>
<!-- 0&#45;&gt;1 -->
<g id="edge1" class="edge">
<title>0&#45;&gt;1</title>
<path fill="none" stroke="#000000" d="M117.5874,-149.2936C100.258,-137.9507 74.6682,-121.201 55.1028,-108.3946"/>
<polygon fill="#000000" stroke="#000000" points="56.8724,-105.3698 46.5885,-102.8216 53.0387,-111.2267 56.8724,-105.3698"/>
</g>
<!-- 2 -->
<g id="node3" class="node">
<title>2</title>
<ellipse fill="none" stroke="#000000" cx="54" cy="-18" rx="27" ry="18"/>
<text text-anchor="middle" x="54" y="-14.3" font-family="Times,serif" font-size="14.00" fill="#000000">2</text>
</g>
<!-- 0&#45;&gt;2 -->
<g id="edge2" class="edge">
<title>0&#45;&gt;2</title>
<path fill="none" stroke="#000000" d="M125.1774,-145.2728C117.9126,-134.7545 108.5781,-120.7975 101,-108 88.6475,-87.14 76.0023,-62.7177 66.944,-44.5812"/>
<polygon fill="#000000" stroke="#000000" points="69.8798,-42.6226 62.3053,-35.2146 63.6069,-45.7292 69.8798,-42.6226"/>
</g>
<!-- 3 -->
<g id="node4" class="node">
<title>3</title>
<ellipse fill="none" stroke="#000000" cx="137" cy="-90" rx="27" ry="18"/>
<text text-anchor="middle" x="137" y="-86.3" font-family="Times,serif" font-size="14.00" fill="#000000">3</text>
</g>
<!-- 0&#45;&gt;3 -->
<g id="edge3" class="edge">
<title>0&#45;&gt;3</title>
<path fill="none" stroke="#000000" d="M137,-143.8314C137,-136.131 137,-126.9743 137,-118.4166"/>
<polygon fill="#000000" stroke="#000000" points="140.5001,-118.4132 137,-108.4133 133.5001,-118.4133 140.5001,-118.4132"/>
</g>
<!-- 4 -->
<g id="node5" class="node">
<title>4</title>
<ellipse fill="none" stroke="#000000" cx="209" cy="-90" rx="27" ry="18"/>
<text text-anchor="middle" x="209" y="-86.3" font-family="Times,serif" font-size="14.00" fill="#000000">4</text>
</g>
<!-- 0&#45;&gt;4 -->
<g id="edge4" class="edge">
<title>0&#45;&gt;4</title>
<path fill="none" stroke="#000000" d="M152.2693,-146.7307C162.197,-136.803 175.3153,-123.6847 186.4363,-112.5637"/>
<polygon fill="#000000" stroke="#000000" points="189.1564,-114.7933 193.7527,-105.2473 184.2067,-109.8436 189.1564,-114.7933"/>
</g>
<!-- 5 -->
<g id="node6" class="node">
<title>5</title>
<ellipse fill="none" stroke="#000000" cx="236" cy="-18" rx="27" ry="18"/>
<text text-anchor="middle" x="236" y="-14.3" font-family="Times,serif" font-size="14.00" fill="#000000">5</text>
</g>
<!-- 0&#45;&gt;5 -->
<g id="edge5" class="edge">
<title>0&#45;&gt;5</title>
<path fill="none" stroke="#000000" d="M163.2493,-157.0711C189.1143,-150.6665 227.2562,-136.71 245,-108 256.6164,-89.2042 252.7438,-63.8802 246.8998,-44.8829"/>
<polygon fill="#000000" stroke="#000000" points="250.1807,-43.6599 243.6363,-35.3279 243.5564,-45.9224 250.1807,-43.6599"/>
</g>
<!-- 1&#45;&gt;2 -->
<g id="edge6" class="edge">
<title>1&#45;&gt;2</title>
<path fill="none" stroke="#000000" d="M33.6742,-72.2022C36.7476,-64.0064 40.4616,-54.1024 43.8695,-45.0145"/>
<polygon fill="#000000" stroke="#000000" points="47.1685,-46.1853 47.4026,-35.593 40.6142,-43.7274 47.1685,-46.1853"/>
</g>
<!-- 4&#45;&gt;5 -->
<g id="edge7" class="edge">
<title>4&#45;&gt;5</title>
<path fill="none" stroke="#000000" d="M215.6742,-72.2022C218.7476,-64.0064 222.4616,-54.1024 225.8695,-45.0145"/>
<polygon fill="#000000" stroke="#000000" points="229.1685,-46.1853 229.4026,-35.593 222.6142,-43.7274 229.1685,-46.1853"/>
</g>
</g>
</svg>
